<svg id="Calque_2" data-name="Calque 2" xmlns="http://www.w3.org/2000/svg" viewBox="0 0 1280 720"><title>no-image</title><rect width="1280" height="720" style="fill:#e5e5e5"/><path d="M566.95,231.25c-3,.81-5.9,3.54-7.48,7a13.29,13.29,0,0,0-1.18,4.5v0.73h13.19l0.74-.59a5,5,0,0,1,1.41-.79c0.44-.13,20.39-0.2,56.25-0.2,60.71,0,56.11-.09,57.66,1.09l0.63,0.48h13.19v-0.85a14.16,14.16,0,0,0-1.64-5.35,15.54,15.54,0,0,0-5-5.25c-2.28-1.22,2.61-1.14-65-1.13-53.28,0-61.85,0-62.77.3h0Z" style="fill:#ababab"/><rect x="433.65" y="340.39" width="403.7" height="10.21" transform="translate(-58.17 550.56) rotate(-45)" style="fill:#ababab"/><path d="M559.56,264.35l0.46-.69a6.71,6.71,0,0,1,3.15-2.15c0.83-.27,7.73-0.3,67.24-0.25l66.32,0,1,0.48a9,9,0,0,1,2,1.52l1,1,4.73,0,7.18-7.18a14.65,14.65,0,0,0-7.34-6.5l-1.47-.54-73.3,0c-40.33,0-73.52,0-73.79.06-5.52.92-10.4,6.64-11.13,13l-0.13,1.18h14.11Z" style="fill:#ababab"/><path d="M645.76,324l7.27-7.27a10.88,10.88,0,0,1,.55-3.47,11.24,11.24,0,0,1,5.12-5.42,7.67,7.67,0,0,1,4-.79l7.36-7.36a19.38,19.38,0,0,0-2.23-.76,25,25,0,0,0-8.53-.29,18.85,18.85,0,0,0-14.3,13.2c-0.49,1.59-.53,2-0.53,5.07s0,3.48.53,5.07A20.44,20.44,0,0,0,645.76,324Z" style="fill:#ababab"/><path d="M672.49,319.74a9.18,9.18,0,0,1-2.56,4.17,10.08,10.08,0,0,1-4.12,2.51l-8.27,8.27,0.77,0.24a23,23,0,0,0,9.33,0,19.26,19.26,0,0,0,9.65-6.15,18.46,18.46,0,0,0,3.48-17.33Z" style="fill:#ababab"/><path d="M546.21,423.24l0.29,0,11.39-11.39c-5.79-.06-6.09-0.15-6.57-0.34a6.69,6.69,0,0,1-3.36-3l-0.59-1.06-0.06-11.6-0.06-11.6L575.51,363c15.54-11.75,28.32-21.36,28.4-21.36s4.93,4.6,12.5,11.75l8.49-8.49c-18.67-18.32-17.58-17.15-20.05-17.11a8.32,8.32,0,0,0-4.78,1.61c-0.61.4-12.62,9.44-26.71,20.1S547.66,368.89,547.52,369s-0.24-8-.2-41.18l0-41.33,0.52-1a6.71,6.71,0,0,1,4.67-3.44c0.5-.08,35.71-0.14,78.24-0.12l57,0,11.39-11.39c-40.93-.22-151.52-0.15-153.1.2a13.37,13.37,0,0,0-9.61,8.84L536,281.15V412.82l0.53,1.57A13.25,13.25,0,0,0,546.21,423.24Z" style="fill:#ababab"/><path d="M720.39,274.08a13.37,13.37,0,0,0-1.22-1l-9.6,9.6a6.4,6.4,0,0,1,3.17,3.45c0.39,1.06.39,1.25,0.35,40.49L713,366l-9.21-9c-5.07-5-9.66-9.31-10.21-9.66a9.17,9.17,0,0,0-4-1.24,10,10,0,0,0-4,1.32c-0.76.51-26.15,24.15-28.62,26.64l-1.15,1.16-0.8-.76c-0.38-.36-8.49-8.31-18.87-18.49L628,364.27l9.26,8.78c18.24,17.3,34.92,33.14,37,35.18l3.87,3.7H580.3l-11.53,11.53c45.45,0.18,143.85.1,145.46-.24a13.3,13.3,0,0,0,9.68-8.84l0.53-1.57V281.15l-0.53-1.57A12.8,12.8,0,0,0,720.39,274.08Zm-7.25,120.1c0,12.34,0,12.65-.41,13.73a6.84,6.84,0,0,1-3.62,3.62c-1,.39-1.47.41-7.72,0.41h-6.62L680,397.74c-8.12-7.81-14.79-14.29-14.82-14.4s5.42-5.52,12.11-12l12.16-11.81,0.52,0.41c0.29,0.23,5.61,5.18,11.84,11l11.32,10.6v12.63Z" style="fill:#ababab"/><text transform="translate(486.54 525.42)" style="font-size:36.382598876953125px;fill:#ababab;font-family:Myriad Pro">no image <tspan x="150.55" y="0">a</tspan><tspan x="167.79" y="0">v</tspan><tspan x="185.15" y="0">ailable</tspan></text></svg>